HIERARCHY
ROOT mixamorig:Hips
{
	OFFSET 0.000000 85.230415 0.000000
	CHANNELS 6 Xposition Yposition Zposition Zrotation Yrotation Xrotation 
	JOINT mixamorig:Spine
	{
		OFFSET -0.000014 7.868595 1.166200
		CHANNELS 3 Zrotation Yrotation Xrotation
		JOINT mixamorig:Spine1
		{
			OFFSET 0.000000 8.307600 0.241180
			CHANNELS 3 Zrotation Yrotation Xrotation
			JOINT mixamorig:Spine2
			{
				OFFSET 0.000000 7.469998 -0.455969
				CHANNELS 3 Zrotation Yrotation Xrotation
				JOINT mixamorig:Neck
				{
					OFFSET 0.000000 21.623920 -3.130763
					CHANNELS 3 Zrotation Yrotation Xrotation
					JOINT mixamorig:Head
					{
						OFFSET 0.000000 8.979096 1.007916
						CHANNELS 3 Zrotation Yrotation Xrotation
						JOINT mixamorig:HeadTop_End
						{
							OFFSET 0.000000 36.978806 0.701265
							CHANNELS 3 Zrotation Yrotation Xrotation
							End Site
							{
								OFFSET 0.000000 0.000000 0.000000
							}
						}
						JOINT mixamorig:HairB
						{
							OFFSET -6.414200 28.771164 21.708258
							CHANNELS 3 Zrotation Yrotation Xrotation
							End Site
							{
								OFFSET 0.000000 0.000000 0.000000
							}
						}
						JOINT mixamorig:HairA
						{
							OFFSET -11.484100 27.496475 17.498951
							CHANNELS 3 Zrotation Yrotation Xrotation
							End Site
							{
								OFFSET 0.000000 0.000000 0.000000
							}
						}
						JOINT mixamorig:Bow_Left
						{
							OFFSET -6.807600 33.586777 20.752766
							CHANNELS 3 Zrotation Yrotation Xrotation
							End Site
							{
								OFFSET 0.000000 0.000000 0.000000
							}
						}
						JOINT mixamorig:Bow_Right
						{
							OFFSET -11.133100 30.313980 19.500957
							CHANNELS 3 Zrotation Yrotation Xrotation
							End Site
							{
								OFFSET 0.000000 0.000000 0.000000
							}
						}
						JOINT mixamorig:HairC
						{
							OFFSET 2.525900 31.959274 20.608562
							CHANNELS 3 Zrotation Yrotation Xrotation
							JOINT mixamorig:HairC1
							{
								OFFSET 1.733735 -3.232010 3.632423
								CHANNELS 3 Zrotation Yrotation Xrotation
								End Site
								{
									OFFSET 0.000000 0.000000 0.000000
								}
							}
						}
						JOINT mixamorig:Ponytail
						{
							OFFSET -0.181100 31.348724 -13.427048
							CHANNELS 3 Zrotation Yrotation Xrotation
							JOINT mixamorig:Ponytail1
							{
								OFFSET -0.746532 2.567368 -7.327436
								CHANNELS 3 Zrotation Yrotation Xrotation
								JOINT mixamorig:Ponytail2
								{
									OFFSET -0.357839 -10.803711 -7.221615
									CHANNELS 3 Zrotation Yrotation Xrotation
									End Site
									{
										OFFSET 0.000000 0.000000 0.000000
									}
								}
							}
						}
					}
				}
				JOINT mixamorig:LeftShoulder
				{
					OFFSET 4.215800 16.566912 -4.092373
					CHANNELS 3 Zrotation Yrotation Xrotation
					JOINT mixamorig:LeftArm
					{
						OFFSET 8.521194 -0.267406 -1.717659
						CHANNELS 3 Zrotation Yrotation Xrotation
						JOINT mixamorig:LeftForeArm
						{
							OFFSET 21.262897 0.000002 -0.000001
							CHANNELS 3 Zrotation Yrotation Xrotation
							JOINT mixamorig:LeftHand
							{
								OFFSET 21.154701 -0.000003 -0.000001
								CHANNELS 3 Zrotation Yrotation Xrotation
								JOINT mixamorig:LeftHandThumb1
								{
									OFFSET 4.109039 -1.962593 2.610258
									CHANNELS 3 Zrotation Yrotation Xrotation
									JOINT mixamorig:LeftHandThumb2
									{
										OFFSET 3.101486 -1.790642 1.790644
										CHANNELS 3 Zrotation Yrotation Xrotation
										JOINT mixamorig:LeftHandThumb3
										{
											OFFSET 3.038742 -1.754417 1.754420
											CHANNELS 3 Zrotation Yrotation Xrotation
											JOINT mixamorig:LeftHandThumb4
											{
												OFFSET 2.539978 -1.466461 1.466458
												CHANNELS 3 Zrotation Yrotation Xrotation
												End Site
												{
													OFFSET 0.000000 0.000000 0.000000
												}
											}
										}
									}
								}
								JOINT mixamorig:LeftHandIndex1
								{
									OFFSET 11.845871 -0.683540 3.729384
									CHANNELS 3 Zrotation Yrotation Xrotation
									JOINT mixamorig:LeftHandIndex2
									{
										OFFSET 3.283096 0.000000 -0.000000
										CHANNELS 3 Zrotation Yrotation Xrotation
										JOINT mixamorig:LeftHandIndex3
										{
											OFFSET 3.323807 0.000000 -0.000000
											CHANNELS 3 Zrotation Yrotation Xrotation
											JOINT mixamorig:LeftHandIndex4
											{
												OFFSET 3.020599 0.000000 -0.000000
												CHANNELS 3 Zrotation Yrotation Xrotation
												End Site
												{
													OFFSET 0.000000 0.000000 0.000000
												}
											}
										}
									}
								}
								JOINT mixamorig:LeftHandMiddle1
								{
									OFFSET 12.082413 0.000000 -0.000000
									CHANNELS 3 Zrotation Yrotation Xrotation
									JOINT mixamorig:LeftHandMiddle2
									{
										OFFSET 3.410500 0.000000 0.000000
										CHANNELS 3 Zrotation Yrotation Xrotation
										JOINT mixamorig:LeftHandMiddle3
										{
											OFFSET 3.312202 0.000000 0.000000
											CHANNELS 3 Zrotation Yrotation Xrotation
											JOINT mixamorig:LeftHandMiddle4
											{
												OFFSET 3.438499 0.000000 0.000000
												CHANNELS 3 Zrotation Yrotation Xrotation
												End Site
												{
													OFFSET 0.000000 0.000000 0.000000
												}
											}
										}
									}
								}
								JOINT mixamorig:LeftHandRing1
								{
									OFFSET 12.470573 0.087585 -2.973213
									CHANNELS 3 Zrotation Yrotation Xrotation
									JOINT mixamorig:LeftHandRing2
									{
										OFFSET 3.053307 0.000000 0.000000
										CHANNELS 3 Zrotation Yrotation Xrotation
										JOINT mixamorig:LeftHandRing3
										{
											OFFSET 3.295898 0.000000 0.000000
											CHANNELS 3 Zrotation Yrotation Xrotation
											JOINT mixamorig:LeftHandRing4
											{
												OFFSET 3.727997 0.000000 0.000000
												CHANNELS 3 Zrotation Yrotation Xrotation
												End Site
												{
													OFFSET 0.000000 0.000000 0.000000
												}
											}
										}
									}
								}
								JOINT mixamorig:LeftHandPinky1
								{
									OFFSET 11.691048 -0.779549 -5.760270
									CHANNELS 3 Zrotation Yrotation Xrotation
									JOINT mixamorig:LeftHandPinky2
									{
										OFFSET 2.861702 0.000000 0.000000
										CHANNELS 3 Zrotation Yrotation Xrotation
										JOINT mixamorig:LeftHandPinky3
										{
											OFFSET 2.863403 0.000000 0.000000
											CHANNELS 3 Zrotation Yrotation Xrotation
											JOINT mixamorig:LeftHandPinky4
											{
												OFFSET 2.545403 0.000000 0.000000
												CHANNELS 3 Zrotation Yrotation Xrotation
												End Site
												{
													OFFSET 0.000000 0.000000 0.000000
												}
											}
										}
									}
								}
							}
							JOINT mixamorig:LeftWristTwist
							{
								OFFSET 10.565701 0.000000 -0.000000
								CHANNELS 3 Zrotation Yrotation Xrotation
								End Site
								{
									OFFSET 0.000000 0.000000 0.000000
								}
							}
						}
						JOINT mixamorig:LeftUpArmTwist
						{
							OFFSET 10.646198 0.000000 -0.000000
							CHANNELS 3 Zrotation Yrotation Xrotation
							End Site
							{
								OFFSET 0.000000 0.000000 0.000000
							}
						}
					}
				}
				JOINT mixamorig:Right_Breast
				{
					OFFSET -2.562200 12.208893 5.100423
					CHANNELS 3 Zrotation Yrotation Xrotation
					End Site
					{
						OFFSET 0.000000 0.000000 0.000000
					}
				}
				JOINT mixamorig:Left_Breast
				{
					OFFSET 2.562200 12.208893 5.100423
					CHANNELS 3 Zrotation Yrotation Xrotation
					End Site
					{
						OFFSET 0.000000 0.000000 0.000000
					}
				}
				JOINT mixamorig:RightShoulder
				{
					OFFSET -4.215800 16.567416 -4.092373
					CHANNELS 3 Zrotation Yrotation Xrotation
					JOINT mixamorig:RightArm
					{
						OFFSET -8.521288 -0.267902 -1.717664
						CHANNELS 3 Zrotation Yrotation Xrotation
						JOINT mixamorig:RightForeArm
						{
							OFFSET -21.262793 -0.000002 0.000001
							CHANNELS 3 Zrotation Yrotation Xrotation
							JOINT mixamorig:RightHand
							{
								OFFSET -21.154800 0.000000 -0.000001
								CHANNELS 3 Zrotation Yrotation Xrotation
								JOINT mixamorig:RightHandThumb1
								{
									OFFSET -4.108955 -1.962654 2.610195
									CHANNELS 3 Zrotation Yrotation Xrotation
									JOINT mixamorig:RightHandThumb2
									{
										OFFSET -3.101406 -1.790596 1.790599
										CHANNELS 3 Zrotation Yrotation Xrotation
										JOINT mixamorig:RightHandThumb3
										{
											OFFSET -3.038822 -1.754463 1.754464
											CHANNELS 3 Zrotation Yrotation Xrotation
											JOINT mixamorig:RightHandThumb4
											{
												OFFSET -2.539749 -1.466324 1.466325
												CHANNELS 3 Zrotation Yrotation Xrotation
												End Site
												{
													OFFSET 0.000000 0.000000 0.000000
												}
											}
										}
									}
								}
								JOINT mixamorig:RightHandIndex1
								{
									OFFSET -11.845840 -0.684052 3.729363
									CHANNELS 3 Zrotation Yrotation Xrotation
									JOINT mixamorig:RightHandIndex2
									{
										OFFSET -3.283096 0.000000 -0.000000
										CHANNELS 3 Zrotation Yrotation Xrotation
										JOINT mixamorig:RightHandIndex3
										{
											OFFSET -3.323807 0.000000 -0.000000
											CHANNELS 3 Zrotation Yrotation Xrotation
											JOINT mixamorig:RightHandIndex4
											{
												OFFSET -3.020599 0.000000 0.000000
												CHANNELS 3 Zrotation Yrotation Xrotation
												End Site
												{
													OFFSET 0.000000 0.000000 0.000000
												}
											}
										}
									}
								}
								JOINT mixamorig:RightHandMiddle1
								{
									OFFSET -12.082314 0.000000 0.000000
									CHANNELS 3 Zrotation Yrotation Xrotation
									JOINT mixamorig:RightHandMiddle2
									{
										OFFSET -3.410606 0.000000 0.000000
										CHANNELS 3 Zrotation Yrotation Xrotation
										JOINT mixamorig:RightHandMiddle3
										{
											OFFSET -3.312195 0.000000 0.000000
											CHANNELS 3 Zrotation Yrotation Xrotation
											JOINT mixamorig:RightHandMiddle4
											{
												OFFSET -3.438499 0.000000 0.000000
												CHANNELS 3 Zrotation Yrotation Xrotation
												End Site
												{
													OFFSET 0.000000 0.000000 0.000000
												}
											}
										}
									}
								}
								JOINT mixamorig:RightHandRing1
								{
									OFFSET -12.470573 0.087166 -2.973210
									CHANNELS 3 Zrotation Yrotation Xrotation
									JOINT mixamorig:RightHandRing2
									{
										OFFSET -3.053299 0.000000 0.000000
										CHANNELS 3 Zrotation Yrotation Xrotation
										JOINT mixamorig:RightHandRing3
										{
											OFFSET -3.295898 0.000000 0.000000
											CHANNELS 3 Zrotation Yrotation Xrotation
											JOINT mixamorig:RightHandRing4
											{
												OFFSET -3.727997 0.000000 0.000000
												CHANNELS 3 Zrotation Yrotation Xrotation
												End Site
												{
													OFFSET 0.000000 0.000000 0.000000
												}
											}
										}
									}
								}
								JOINT mixamorig:RightHandPinky1
								{
									OFFSET -11.691017 -0.779953 -5.760294
									CHANNELS 3 Zrotation Yrotation Xrotation
									JOINT mixamorig:RightHandPinky2
									{
										OFFSET -2.861603 0.000000 0.000000
										CHANNELS 3 Zrotation Yrotation Xrotation
										JOINT mixamorig:RightHandPinky3
										{
											OFFSET -2.863403 0.000000 0.000000
											CHANNELS 3 Zrotation Yrotation Xrotation
											JOINT mixamorig:RightHandPinky4
											{
												OFFSET -2.545303 0.000000 0.000000
												CHANNELS 3 Zrotation Yrotation Xrotation
												End Site
												{
													OFFSET 0.000000 0.000000 0.000000
												}
											}
										}
									}
								}
							}
							JOINT mixamorig:RightWristTwist
							{
								OFFSET -10.565701 0.000000 0.000000
								CHANNELS 3 Zrotation Yrotation Xrotation
								End Site
								{
									OFFSET 0.000000 0.000000 0.000000
								}
							}
						}
						JOINT mixamorig:RightUpArmTwist
						{
							OFFSET -10.646093 0.000000 0.000001
							CHANNELS 3 Zrotation Yrotation Xrotation
							End Site
							{
								OFFSET 0.000000 0.000000 0.000000
							}
						}
					}
				}
			}
		}
		JOINT mixamorig:Belly
		{
			OFFSET 0.000000 -0.538567 3.357786
			CHANNELS 3 Zrotation Yrotation Xrotation
			End Site
			{
				OFFSET 0.000000 0.000000 0.000000
			}
		}
	}
	JOINT mixamorig:LeftUpLeg
	{
		OFFSET 8.267015 -7.995487 -0.379100
		CHANNELS 3 Zrotation Yrotation Xrotation
		JOINT mixamorig:LeftLeg
		{
			OFFSET -0.000034 -32.369440 0.062314
			CHANNELS 3 Zrotation Yrotation Xrotation
			JOINT mixamorig:LeftFoot
			{
				OFFSET 0.000024 -35.030462 -2.208349
				CHANNELS 3 Zrotation Yrotation Xrotation
				JOINT mixamorig:LeftToeBase
				{
					OFFSET 1.232905 -9.835773 10.854839
					CHANNELS 3 Zrotation Yrotation Xrotation
					JOINT mixamorig:LeftToe_End
					{
						OFFSET 0.210410 0.001970 7.008142
						CHANNELS 3 Zrotation Yrotation Xrotation
						End Site
						{
							OFFSET 0.000000 0.000000 0.000000
						}
					}
				}
			}
		}
	}
	JOINT mixamorig:RightUpLeg
	{
		OFFSET -8.266986 -7.995517 -0.379100
		CHANNELS 3 Zrotation Yrotation Xrotation
		JOINT mixamorig:RightLeg
		{
			OFFSET 0.000002 -32.369437 0.062314
			CHANNELS 3 Zrotation Yrotation Xrotation
			JOINT mixamorig:RightFoot
			{
				OFFSET 0.000001 -35.030467 -2.208349
				CHANNELS 3 Zrotation Yrotation Xrotation
				JOINT mixamorig:RightToeBase
				{
					OFFSET -1.232895 -9.835700 10.854908
					CHANNELS 3 Zrotation Yrotation Xrotation
					JOINT mixamorig:RightToe_End
					{
						OFFSET -0.214257 0.001952 7.007725
						CHANNELS 3 Zrotation Yrotation Xrotation
						End Site
						{
							OFFSET 0.000000 0.000000 0.000000
						}
					}
				}
			}
		}
	}
	JOINT mixamorig:SkirtA
	{
		OFFSET 11.243096 1.931320 -10.868500
		CHANNELS 3 Zrotation Yrotation Xrotation
		JOINT mixamorig:SkirtA1
		{
			OFFSET 2.094878 -7.760521 -3.754759
			CHANNELS 3 Zrotation Yrotation Xrotation
			End Site
			{
				OFFSET 0.000000 0.000000 0.000000
			}
		}
	}
	JOINT mixamorig:SkirtB
	{
		OFFSET -0.000008 4.335800 -15.692000
		CHANNELS 3 Zrotation Yrotation Xrotation
		JOINT mixamorig:SkirtB1
		{
			OFFSET 0.000000 -9.729668 -3.399943
			CHANNELS 3 Zrotation Yrotation Xrotation
			End Site
			{
				OFFSET 0.000000 0.000000 0.000000
			}
		}
	}
	JOINT mixamorig:SkirtC
	{
		OFFSET -11.243104 1.931381 -10.868500
		CHANNELS 3 Zrotation Yrotation Xrotation
		JOINT mixamorig:SkirtC1
		{
			OFFSET -1.996108 -7.801628 -3.723248
			CHANNELS 3 Zrotation Yrotation Xrotation
			End Site
			{
				OFFSET 0.000000 0.000000 0.000000
			}
		}
	}
}
MOTION
Frames: 4
Frame Time: 0.016667
0.495071 77.364594 0.450428 -3.738469 26.308002 -5.991602 8.920097 3.703472 16.611344 2.224821 1.586992 3.207054 3.969142 5.589389 3.467921 1.668546 -2.332884 2.164178 21.568190 -29.564447 -17.874057 -0.000001 0.000001 -0.000000 -0.000002 0.000002 -0.000000 -0.000003 0.000003 -0.000002 0.000004 -0.000002 -0.000003 -0.000005 0.000002 0.000004 -0.000003 0.000001 0.000003 -0.000001 -0.000003 0.000002 0.000000 0.000000 0.000001 0.000000 0.000001 0.000001 0.000001 -0.000002 -0.000001 -16.947559 -10.851358 3.777418 -63.575496 6.859858 -11.843585 -0.096667 -24.638940 -0.020968 -0.200491 13.770462 -17.264526 6.429199 4.893275 4.893871 9.924170 6.672676 16.419778 14.425191 -16.215698 -20.803533 -0.000001 0.000003 0.000002 -26.310531 -1.127739 -0.694606 -22.880113 2.281659 -0.461781 -5.932409 0.606815 -0.031454 0.000000 0.000001 0.000003 -37.894246 3.759237 -2.630158 -20.350870 2.041055 -0.366378 -15.481635 1.566886 -0.212999 -0.000002 -0.000000 -0.000001 -42.476690 7.225728 -3.079336 -25.999407 2.572102 -0.593891 -22.824042 2.276363 -0.459555 0.000001 0.000001 -0.000002 -46.733079 3.565912 -3.773117 -20.452926 2.050850 -0.370017 -27.095837 2.672406 -0.644065 0.000000 -0.000002 0.000000 0.000002 0.000000 -0.000002 0.000002 0.000002 -0.000001 -0.000001 0.000001 -0.000001 -0.000001 0.000001 -0.000001 22.082032 17.751086 5.779570 31.976756 27.239747 -7.755936 0.278183 26.103734 0.159478 -3.738363 18.593941 -5.991931 -9.351374 -3.823781 0.782347 -12.036058 -19.343881 19.701834 -13.676898 9.332142 -20.697172 0.000002 0.000003 0.000000 5.654613 1.650623 -0.124950 24.934539 -1.966951 -0.434905 5.444989 -0.442872 -0.021053 -0.000002 0.000001 -0.000001 18.631169 -0.664814 -0.922291 25.714677 -2.024305 -0.462095 10.527308 -0.852712 -0.078554 -0.000001 -0.000004 0.000000 27.026473 -0.179492 -1.494550 13.218415 -1.067160 -0.123652 22.825082 -1.809992 -0.365390 -0.000001 -0.000000 -0.000002 23.128240 -0.173703 -2.507071 30.462657 -2.364956 -0.644008 15.665462 -1.260094 -0.173350 0.000001 -0.000001 -0.000001 -0.000000 0.000001 -0.000003 -0.000001 0.000002 -0.000000 -0.000000 0.000001 -0.000001 2.827406 8.362226 -46.961222 8.741958 7.405290 47.198682 -3.756467 9.805850 -3.944163 0.000013 -0.000014 -8.722548 -0.000001 0.000002 -0.000000 -1.557844 -9.608672 -32.036156 -2.785419 -11.523901 28.168610 -1.492141 -4.361888 1.950574 0.000001 0.000002 0.623499 0.000000 0.000000 0.000000 -0.000001 -0.000002 -0.000004 -0.000000 -0.000001 0.000001 0.000000 0.000000 0.000000 -0.000001 0.000001 -0.000000 0.000001 -0.000001 -0.000000 0.000000 0.000000 -0.000002 
0.334070 77.700493 -1.208520 -2.930358 23.698771 -4.451050 8.112835 3.517060 16.775467 2.058472 1.466446 3.209660 4.669171 7.452076 3.493979 1.538823 -2.067121 2.048292 19.774443 -26.259326 -16.622280 0.000000 0.000000 -0.000001 -0.000003 -0.000001 -0.000002 -0.000003 0.000002 -0.000003 0.000004 -0.000005 -0.000002 -0.000006 0.000002 0.000003 -0.000001 0.000001 -0.000004 0.000002 -0.000002 0.000004 0.000003 -0.000002 -0.000001 0.000004 0.000000 -0.000004 0.000002 -0.000000 0.000001 -16.815055 -10.997191 3.760841 -64.629834 9.008957 -11.061980 -0.101885 -23.267662 -0.009020 -4.224500 14.940537 -6.267402 6.429196 4.893272 4.893867 9.924170 6.672673 16.419782 14.372065 -15.692910 -20.563241 -0.000002 0.000006 0.000001 -26.684399 -1.080948 -0.692773 -23.185815 2.310437 -0.474018 -6.185445 0.632602 -0.034181 0.000000 0.000000 0.000001 -38.369098 3.790791 -2.675771 -20.726936 2.077095 -0.379899 -15.786982 1.597002 -0.221425 0.000000 0.000001 0.000000 -43.097687 7.249548 -3.141569 -26.473362 2.615569 -0.615352 -23.199916 2.311771 -0.474606 -0.000001 0.000001 -0.000001 -47.565218 3.607831 -3.854158 -21.068127 2.109725 -0.392359 -27.569440 2.715423 -0.666321 -0.000001 -0.000001 0.000001 0.000001 0.000000 -0.000002 0.000000 -0.000001 -0.000002 -0.000000 -0.000003 0.000001 -0.000000 -0.000003 0.000001 21.480306 17.214341 5.561082 34.186160 33.182067 -8.088325 0.274106 28.256796 0.191649 -2.408887 20.240035 -6.018928 -9.202273 -3.794413 0.744148 -12.036053 -19.343873 19.701831 -13.647544 9.088738 -20.581686 0.000002 0.000000 0.000000 6.034596 1.610155 -0.116875 25.315973 -1.995031 -0.448100 5.825981 -0.473773 -0.024118 -0.000001 -0.000000 -0.000001 19.110075 -0.702127 -0.953110 26.097019 -2.052299 -0.475687 10.837015 -0.877477 -0.083216 0.000000 -0.000003 -0.000001 27.664499 -0.225185 -1.541295 13.700507 -1.105313 -0.132811 23.206138 -1.838544 -0.377531 -0.000001 -0.000002 -0.000001 24.072715 -0.231647 -2.547333 31.088521 -2.408661 -0.670084 16.145367 -1.297678 -0.184066 -0.000001 0.000000 0.000000 0.000001 -0.000001 -0.000001 0.000000 -0.000001 -0.000002 0.000000 -0.000002 -0.000003 3.445214 9.201276 -45.987870 9.349296 6.360744 51.748405 -4.636757 9.688342 -4.686420 0.000000 0.000005 -8.601568 0.000000 0.000000 0.000000 -1.421418 -9.573888 -33.417015 -1.692516 -10.985108 25.514104 -2.666704 -2.892733 2.255210 0.000000 0.000000 0.149670 0.000000 0.000000 0.000000 -0.000002 -0.000001 -0.000004 0.000002 -0.000001 -0.000002 -0.000001 0.000000 0.000002 0.000000 0.000000 -0.000002 0.000002 -0.000002 0.000003 0.000001 0.000001 -0.000004 
0.189263 78.075951 -2.887404 -2.064259 20.761534 -2.984236 7.294797 3.345163 16.935174 1.885640 1.309680 3.221598 5.975970 10.649940 3.607578 1.364789 -1.900401 1.925875 16.795092 -22.344362 -15.670975 0.000001 0.000000 0.000000 0.000001 -0.000001 -0.000004 0.000001 -0.000002 -0.000003 0.000006 -0.000004 -0.000003 -0.000003 0.000002 -0.000003 0.000000 -0.000001 -0.000006 0.000002 -0.000004 0.000002 0.000001 0.000001 0.000001 0.000002 0.000002 -0.000001 -0.000001 0.000001 0.000006 -16.556389 -10.988137 3.712363 -66.342776 11.421594 -10.003536 -0.114125 -22.170735 -0.001256 -8.850549 16.302269 5.416043 6.429201 4.893271 4.893871 9.924172 6.672675 16.419782 14.238145 -14.245136 -19.907397 -0.000001 0.000003 0.000001 -27.748765 -0.948874 -0.688530 -24.060728 2.392452 -0.509915 -6.912952 0.706656 -0.042704 0.000000 0.000001 0.000000 -39.711328 3.877920 -2.805882 -21.797460 2.179195 -0.419629 -16.660930 1.682907 -0.246451 -0.000001 0.000001 -0.000000 -44.836804 7.312701 -3.317539 -27.812990 2.737474 -0.677903 -24.269785 2.411966 -0.518688 -0.000000 0.000001 -0.000004 -49.866388 3.717199 -4.080673 -22.790950 2.273240 -0.458247 -28.908105 2.836002 -0.731141 0.000000 -0.000001 -0.000002 0.000000 0.000000 -0.000001 -0.000000 0.000002 -0.000001 -0.000001 0.000001 0.000001 -0.000001 0.000001 0.000001 20.841436 16.606567 5.239211 36.447787 35.034225 -7.552146 0.259877 30.930927 0.193700 -0.956335 21.831836 -5.902550 -8.778192 -3.710661 0.637146 -12.036057 -19.343873 19.701839 -13.566633 8.395172 -20.255061 -0.000002 0.000000 0.000001 7.116175 1.495642 -0.095005 26.401628 -2.074505 -0.486652 6.910350 -0.561577 -0.033914 0.000000 -0.000001 -0.000001 20.463623 -0.806232 -1.041596 27.185265 -2.131431 -0.515409 11.723450 -0.948279 -0.097352 0.000000 0.000000 0.000001 29.451225 -0.350318 -1.674261 15.062995 -1.212795 -0.160350 24.290700 -1.919322 -0.413108 -0.000001 0.000000 0.000000 26.684226 -0.386133 -2.663410 32.841205 -2.529572 -0.745573 17.501706 -1.403377 -0.216029 -0.000001 -0.000001 0.000000 -0.000001 -0.000002 0.000004 0.000001 -0.000001 -0.000000 -0.000000 -0.000002 0.000001 3.625053 10.217385 -44.231803 9.827461 5.447521 55.930286 -5.801011 10.212405 -5.694164 -0.000003 0.000021 -9.230555 0.000000 0.000003 0.000000 -1.261578 -9.415798 -34.623496 -0.606811 -10.442809 22.710852 -3.561698 -1.440654 2.529757 -0.000000 0.000002 -0.350910 0.000000 0.000001 0.000001 -0.000001 -0.000000 -0.000001 0.000002 0.000002 0.000003 0.000001 0.000000 -0.000002 0.000000 0.000000 -0.000002 0.000002 -0.000001 -0.000000 0.000001 0.000002 -0.000002 
0.064536 78.415482 -4.562713 -1.263865 17.664945 -1.548822 6.464338 3.169771 17.091552 1.710972 1.128243 3.242938 6.871655 12.857772 3.757333 1.187147 -1.729683 1.796669 13.065786 -17.915323 -15.163544 0.000000 0.000000 0.000000 -0.000003 0.000001 -0.000002 0.000000 -0.000003 -0.000002 0.000003 -0.000003 -0.000000 -0.000000 0.000002 -0.000002 -0.000002 0.000001 -0.000002 -0.000003 -0.000003 0.000005 -0.000000 -0.000001 0.000001 -0.000000 -0.000001 0.000001 -0.000001 0.000002 0.000010 -16.217157 -11.034471 3.646633 -68.517750 13.725472 -9.070195 -0.123199 -21.321747 -0.047147 -13.830158 17.806033 16.661968 6.429203 4.893273 4.893869 9.924170 6.672673 16.419782 14.071210 -12.051799 -18.938490 -0.000003 0.000001 -0.000000 -29.417668 -0.745249 -0.684768 -25.441844 2.520722 -0.569138 -8.067521 0.823950 -0.058097 -0.000001 0.000000 0.000002 -41.797601 4.007204 -3.011367 -23.475802 2.337689 -0.485787 -18.040493 1.817725 -0.288577 -0.000000 -0.000001 0.000002 -47.508395 7.399250 -3.592279 -29.895113 2.923897 -0.780739 -25.947187 2.567313 -0.591562 0.000000 -0.000001 -0.000004 -53.344050 3.863915 -4.428980 -25.437494 2.520329 -0.568946 -30.988736 3.020250 -0.837441 0.000001 0.000001 -0.000002 0.000000 -0.000001 -0.000001 0.000000 0.000000 0.000001 0.000000 0.000001 0.000000 0.000000 0.000001 0.000000 20.169340 16.012839 4.803848 38.887108 35.368647 -6.111312 0.251197 33.872650 0.200897 0.550200 23.363353 -5.602068 -8.114109 -3.578956 0.474291 -12.036056 -19.343876 19.701838 -13.447627 7.305739 -19.749064 0.000002 -0.000002 -0.000000 8.811845 1.318221 -0.063896 28.103684 -2.197623 -0.550111 8.610252 -0.698720 -0.052601 -0.000001 0.000001 -0.000000 22.567271 -0.963750 -1.183091 28.891410 -2.253906 -0.580698 13.122596 -1.059569 -0.121866 -0.000000 0.000001 -0.000001 32.195856 -0.534289 -1.884044 17.180318 -1.378406 -0.208231 25.991052 -2.044558 -0.471911 0.000001 0.000001 0.000000 30.630365 -0.603007 -2.851206 35.533462 -2.710597 -0.868690 19.609497 -1.566039 -0.270640 -0.000003 0.000001 -0.000001 0.000001 -0.000001 0.000003 0.000001 -0.000001 -0.000001 -0.000000 -0.000001 0.000001 3.406541 11.472704 -42.145007 10.198595 4.787088 60.232850 -6.888451 10.802630 -6.777752 0.000004 -0.000012 -7.976271 0.000000 -0.000001 -0.000001 -1.051552 -9.143501 -35.832532 0.229373 -9.892391 19.949353 -2.995057 0.047242 3.336025 0.000001 0.000001 -0.791980 0.000000 0.000000 0.000000 0.000000 0.000000 -0.000003 0.000001 0.000001 0.000001 0.000000 0.000001 0.000002 0.000000 0.000000 0.000002 0.000000 -0.000001 0.000000 0.000003 0.000000 -0.000002 
